<?xml version="1.0" standalone="no"?>
<!DOCTYPE svg PUBLIC "-//W3C//DTD SVG 20010904//EN" "http://www.w3.org/TR/2001/REC-SVG-20010904/DTD/svg10.dtd">
<!-- Created using Karbon14, part of koffice: http://www.koffice.org/karbon -->
<svg xmlns="http://www.w3.org/2000/svg" xmlns:xlink="http://www.w3.org/1999/xlink" width="449px" height="168px">
  <defs>
  </defs>
  <g id="Layer">
  </g>
  <g id="Layer">
    <path fill="#98bf00" d="M446.602 73.8789L449.102 60.234L436.207 60.234L439.957 40.145L424.512 46.191L422.012 60.234L412.617 60.234L410.117 73.8789L419.363 73.8789L416.215 91.1719C416.066 92.125 415.816 93.5234 415.566 95.3203C415.316 97.1211 415.164 98.7188 415.164 100.07C415.215 106.316 416.715 111.465 419.664 115.516C422.613 119.66 427.41 122.109 434.109 122.859L440.555 109.566C437.105 109.117 434.508 107.766 432.66 105.469C430.809 103.117 429.91 100.168 429.91 96.5703C429.91 95.8711 430.012 94.8711 430.16 93.5234C430.309 92.1719 430.461 91.0742 430.609 90.2227L433.609 73.8789L446.602 73.8789L446.602 73.8789Z"  />
    <path fill="#98bf00" d="M310.707 72.332C313.105 71.4805 315.207 71.0312 316.957 71.0312C318.855 71.0312 320.453 71.582 321.754 72.6797C323.004 73.7305 323.602 75.2812 323.602 77.4297C323.602 78.0273 323.504 78.9297 323.301 80.1797C323.102 81.3281 322.953 82.3789 322.805 83.2773L319.203 100.168C318.953 101.469 318.703 102.82 318.453 104.219C318.203 105.668 318.105 106.918 318.105 107.965C318.105 112.016 319.203 115.414 321.453 118.113C323.602 120.812 327.449 122.41 333 122.859L339.348 110.016C337.195 109.668 335.648 108.867 334.699 107.617C333.699 106.418 333.199 104.719 333.199 102.57C333.199 102.07 333.25 101.469 333.348 100.82C333.398 100.168 333.5 99.6211 333.547 99.2188L337.195 82.0273C337.496 80.5781 337.746 79.1289 337.945 77.6797C338.148 76.2812 338.246 74.8789 338.246 73.5312C338.246 68.582 336.797 64.586 333.898 61.637C330.949 58.688 326.852 57.188 321.602 57.188C318.555 57.188 315.656 57.688 312.809 58.688C310.008 59.637 306.609 61.234 302.66 63.586C302.512 62.637 302.16 61.484 301.66 60.188C301.113 58.938 300.512 57.836 299.863 56.836L286.469 62.586C287.617 64.336 288.516 66.184 289.066 68.082C289.566 69.9805 289.816 71.7812 289.816 73.4297C289.816 74.2812 289.766 75.3281 289.617 76.4805C289.516 77.6289 289.367 78.5273 289.215 79.1797L281.27 121.512L295.664 121.512L304.109 75.8281C306.16 74.2812 308.359 73.1289 310.707 72.332L310.707 72.332Z"  />
    <path fill="#98bf00" d="M350.742 80.0781C349.191 84.6758 348.441 89.5742 348.441 94.7227C348.441 99.2188 349.043 103.219 350.191 106.719C351.34 110.215 352.992 113.164 355.09 115.516C357.141 117.914 359.688 119.711 362.637 120.961C365.586 122.211 368.883 122.859 372.484 122.859C376.832 122.859 381.129 122.062 385.43 120.461C389.777 118.863 393.574 116.363 396.824 113.016L391.426 100.519C388.926 103.32 386.176 105.418 383.129 106.867C380.078 108.316 377.031 109.016 374.031 109.016C370.535 109.016 367.785 107.918 365.785 105.719C363.836 103.469 362.836 100.668 362.836 97.3711L362.836 96.4219C362.836 96.0234 362.887 95.6211 362.988 95.2227C365.637 94.8711 368.633 94.4219 371.984 93.8242C375.332 93.2227 378.73 92.5234 382.18 91.7227C385.629 90.875 388.977 89.9258 392.273 88.9258C395.523 87.9258 398.422 86.875 400.871 85.8242L400.871 80.0781C400.871 76.5312 400.32 73.332 399.223 70.4805C398.074 67.734 396.574 65.332 394.625 63.285C392.676 61.285 390.324 59.785 387.676 58.785C385.078 57.738 382.23 57.188 379.18 57.188C374.73 57.188 370.582 58.188 366.836 60.137C363.035 62.086 359.789 64.785 357.141 68.2344C354.391 71.6328 352.293 75.5781 350.742 80.0781L350.742 80.0781ZM372.383 69.9805C373.934 69.1328 375.684 68.7344 377.633 68.7344C380.281 68.7344 382.48 69.582 384.227 71.332C385.977 73.0312 386.879 75.5781 386.879 79.0273C385.43 79.4766 383.727 80.0273 381.73 80.5781C379.68 81.0781 377.633 81.5781 375.531 82.0273C373.383 82.4766 371.332 82.9258 369.285 83.3281C367.234 83.6758 365.484 83.9766 363.984 84.2266C364.234 82.1289 364.688 80.1289 365.387 78.2773C366.137 76.4297 367.086 74.7812 368.234 73.3789C369.484 71.9805 370.832 70.832 372.383 69.9805L372.383 69.9805Z"  fill-rule="evenodd" />
    <path fill="#000000" d="M404.172 140.453C404.172 139.203 403.969 138.055 403.57 137.055C403.172 136.055 402.621 135.207 401.973 134.457C401.27 133.758 400.473 133.207 399.523 132.856C398.574 132.508 397.523 132.309 396.422 132.309C394.973 132.309 393.625 132.606 392.375 133.156C391.125 133.707 390.027 134.508 389.078 135.504C388.125 136.504 387.379 137.656 386.828 139.004C386.277 140.356 385.977 141.805 385.977 143.402C385.977 144.652 386.176 145.75 386.578 146.801C386.926 147.801 387.477 148.652 388.176 149.352C388.828 150.101 389.676 150.648 390.625 151.051C391.574 151.399 392.625 151.598 393.773 151.598C395.176 151.598 396.523 151.301 397.773 150.75C399.023 150.199 400.121 149.398 401.07 148.402C402.02 147.449 402.77 146.25 403.32 144.902C403.871 143.551 404.172 142.055 404.172 140.453L404.172 140.453ZM390.277 140.402C390.574 139.504 390.977 138.703 391.477 138.004C392.023 137.305 392.676 136.754 393.426 136.305C394.176 135.856 394.973 135.656 395.922 135.656C397.371 135.656 398.422 136.106 399.172 137.004C399.922 137.856 400.32 139.106 400.32 140.652C400.32 141.602 400.172 142.555 399.871 143.504C399.621 144.402 399.223 145.203 398.672 145.902C398.121 146.602 397.473 147.152 396.723 147.601C395.973 148 395.125 148.199 394.223 148.199C392.773 148.199 391.727 147.75 390.977 146.902C390.227 146 389.824 144.801 389.824 143.254C389.824 142.305 389.977 141.352 390.277 140.402L390.277 140.402Z"  fill-rule="evenodd" />
    <path fill="#000000" d="M434.559 132.559L431.008 132.559L429.109 143.602C429.059 143.754 429.012 144.004 429.012 144.352C429.012 144.703 429.012 144.953 429.012 145.203L428.859 145.203L422.465 132.559L419.113 132.559L415.766 151.301L419.363 151.301L421.363 140.004C421.414 139.856 421.414 139.606 421.414 139.356C421.414 139.106 421.414 138.805 421.414 138.504L421.563 138.504L428.109 151.449L431.309 151.149L434.559 132.559L434.559 132.559Z"  />
    <path fill="#000000" d="M374.383 132.559L370.734 132.559L367.387 151.301L371.082 151.301L374.383 132.559L374.383 132.559Z"  />
    <path fill="#000000" d="M328.949 132.559L324.703 132.559C323.902 133.906 323.051 135.457 322.102 137.106C321.152 138.754 320.254 140.453 319.355 142.152C318.453 143.852 317.656 145.5 316.906 147.102C316.156 148.699 315.555 150.101 315.105 151.301L318.953 151.301C319.105 150.949 319.254 150.5 319.453 150.051C319.652 149.602 319.855 149.102 320.105 148.652C320.305 148.199 320.504 147.75 320.703 147.301C320.902 146.852 321.102 146.453 321.254 146.102L327.75 146.102C327.801 146.551 327.801 147 327.852 147.5L328 148.949C328.051 149.398 328.102 149.852 328.152 150.301C328.199 150.75 328.199 151.098 328.199 151.449L331.898 151.149C331.898 150.449 331.848 149.648 331.75 148.699C331.699 147.75 331.551 146.75 331.398 145.703C331.25 144.652 331.098 143.504 330.898 142.351C330.75 141.203 330.551 140.055 330.301 138.906C330.102 137.754 329.898 136.656 329.648 135.555C329.398 134.508 329.199 133.508 328.949 132.559L328.949 132.559ZM326.602 138.106C326.703 138.656 326.801 139.254 326.902 139.902C327 140.504 327.102 141.106 327.152 141.652C327.25 142.203 327.301 142.601 327.352 142.953L322.703 142.953C322.953 142.504 323.203 142.004 323.453 141.453C323.754 140.902 324.051 140.305 324.352 139.703C324.703 139.106 325 138.555 325.301 138.004C325.602 137.453 325.852 136.957 326.102 136.606L326.301 136.606C326.402 137.004 326.5 137.504 326.602 138.106L326.602 138.106Z"  fill-rule="evenodd" />
    <path fill="#000000" d="M357.641 135.957L358.188 132.559L345.395 132.559L344.844 135.957L349.391 135.957L346.742 151.301L350.391 151.301L353.09 135.957L357.641 135.957L357.641 135.957Z"  />
    <path fill="#000000" d="M297.465 132.309C296.414 132.309 295.363 132.356 294.312 132.457C293.266 132.606 292.266 132.758 291.316 133.008L288.168 150.852C289.117 151.098 290.215 151.25 291.414 151.399C292.566 151.551 293.664 151.598 294.715 151.598C296.262 151.598 297.664 151.348 299.012 150.852C300.363 150.301 301.562 149.602 302.562 148.652C303.559 147.699 304.359 146.551 304.961 145.203C305.508 143.852 305.809 142.305 305.809 140.606C305.809 139.254 305.609 138.106 305.211 137.055C304.762 136.004 304.211 135.156 303.461 134.457C302.711 133.758 301.812 133.207 300.812 132.856C299.762 132.508 298.664 132.309 297.465 132.309L297.465 132.309ZM296.664 135.707C297.414 135.707 298.113 135.805 298.762 135.957C299.414 136.106 299.961 136.406 300.41 136.805C300.91 137.203 301.312 137.703 301.562 138.356C301.812 138.953 301.961 139.703 301.961 140.652C301.961 141.852 301.812 142.902 301.461 143.852C301.16 144.801 300.711 145.602 300.113 146.25C299.512 146.902 298.812 147.352 297.961 147.699C297.113 148.051 296.215 148.199 295.164 148.199C294.715 148.199 294.266 148.199 293.715 148.152C293.164 148.102 292.664 148.051 292.316 148L294.465 135.906C294.766 135.856 295.164 135.805 295.613 135.754C296.062 135.707 296.414 135.707 296.664 135.707L296.664 135.707Z"  fill-rule="evenodd" />
    <path fill="#000000" d="M185.809 62.586C186.957 64.336 187.855 66.184 188.406 68.082C188.906 69.9805 189.156 71.7812 189.156 73.4297C189.156 74.2812 189.105 75.3281 188.957 76.4805C188.855 77.6289 188.707 78.5273 188.555 79.1797L180.609 121.512L195.004 121.512L203.449 75.8281C205.5 74.2812 207.699 73.1289 210.047 72.332C212.445 71.4805 214.547 71.0312 216.297 71.0312C218.195 71.0312 219.793 71.582 221.094 72.6797C222.344 73.7305 222.941 75.2812 222.941 77.4297C222.941 78.0273 222.844 78.9297 222.645 80.1797C222.441 81.3281 222.293 82.3789 222.145 83.2773L218.543 100.168C218.293 101.469 218.043 102.82 217.793 104.219C217.547 105.668 217.445 106.918 217.445 107.965C217.445 112.016 218.543 115.414 220.793 118.113C222.941 120.812 226.793 122.41 232.34 122.859L238.688 110.016C236.539 109.668 234.988 108.867 234.039 107.617C233.039 106.418 232.539 104.719 232.539 102.57C232.539 102.07 232.59 101.469 232.688 100.82C232.738 100.168 232.84 99.6211 232.891 99.2188L236.539 82.0273C236.836 80.5781 237.086 79.1289 237.285 77.6797C237.488 76.2812 237.586 74.8789 237.586 73.5312C237.586 68.582 236.137 64.586 233.238 61.637C230.289 58.688 226.191 57.188 220.945 57.188C217.895 57.188 214.996 57.688 212.148 58.688C209.348 59.637 205.949 61.234 202 63.586C201.852 62.637 201.5 61.484 201 60.188C200.453 58.938 199.852 57.836 199.203 56.836L185.809 62.586L185.809 62.586Z"  />
    <path fill="#000000" d="M276.82 31.547L262.676 31.547L251.883 90.0234C251.43 91.9727 251.082 94.0234 250.832 96.1719C250.582 98.2695 250.434 100.219 250.434 102.019C250.434 107.816 251.531 112.566 253.781 116.262C256.031 119.961 259.828 122.16 265.176 122.859L271.672 109.566C270.625 109.066 269.723 108.516 268.875 107.918C268.023 107.367 267.324 106.617 266.773 105.769C266.176 104.918 265.727 103.918 265.477 102.719C265.227 101.519 265.074 100.019 265.074 98.2695C265.074 97.4219 265.125 96.4727 265.227 95.4727C265.375 94.4219 265.527 93.3711 265.676 92.2734L276.82 31.547L276.82 31.547Z"  />
    <path fill="#000000" d="M246.434 132.559L242.785 132.559L240.387 146.25C239.887 146.801 239.285 147.25 238.535 147.652C237.785 148 236.988 148.199 236.086 148.199C235.188 148.199 234.488 148 233.988 147.601C233.438 147.152 233.188 146.453 233.188 145.402C233.188 145.203 233.238 144.902 233.289 144.504C233.34 144.152 233.34 143.801 233.387 143.504L235.387 132.559L231.688 132.559L229.738 143.453C229.691 143.902 229.641 144.352 229.59 144.801C229.539 145.25 229.539 145.602 229.539 145.953C229.539 146.953 229.691 147.801 229.988 148.551C230.289 149.301 230.691 149.852 231.191 150.301C231.738 150.75 232.34 151.098 232.988 151.301C233.688 151.5 234.387 151.598 235.137 151.598C236.988 151.598 238.637 151.051 240.137 149.898C240.137 150.148 240.137 150.449 240.188 150.75C240.188 151 240.188 151.25 240.234 151.5L243.883 151.25C243.836 151 243.836 150.75 243.836 150.449C243.785 150.199 243.785 149.898 243.785 149.551C243.785 148.949 243.836 148.301 243.883 147.652C243.934 146.953 243.984 146.301 244.133 145.703L246.434 132.559L246.434 132.559Z"  />
    <path fill="#000000" d="M276.621 132.559L273.074 132.559L271.172 143.602C271.125 143.754 271.074 144.004 271.074 144.352C271.074 144.703 271.074 144.953 271.074 145.203L270.922 145.203L264.527 132.559L261.176 132.559L257.828 151.301L261.426 151.301L263.426 140.004C263.477 139.856 263.477 139.606 263.477 139.356C263.477 139.106 263.477 138.805 263.477 138.504L263.625 138.504L270.176 151.449L273.371 151.149L276.621 132.559L276.621 132.559Z"  />
    <path fill="#000000" d="M214.797 134.457C214.098 133.758 213.297 133.207 212.348 132.856C211.398 132.508 210.348 132.309 209.25 132.309C207.801 132.309 206.449 132.606 205.199 133.156C203.949 133.707 202.852 134.508 201.902 135.504C200.953 136.504 200.203 137.656 199.652 139.004C199.102 140.356 198.801 141.805 198.801 143.402C198.801 144.652 199.004 145.75 199.402 146.801C199.754 147.801 200.301 148.652 201 149.352C201.652 150.101 202.5 150.648 203.449 151.051C204.398 151.399 205.449 151.598 206.598 151.598C208 151.598 209.348 151.301 210.598 150.75C211.848 150.199 212.945 149.398 213.895 148.402C214.848 147.449 215.598 146.25 216.145 144.902C216.695 143.551 216.996 142.055 216.996 140.453C216.996 139.203 216.797 138.055 216.395 137.055C215.996 136.055 215.445 135.207 214.797 134.457L214.797 134.457ZM204.301 138.004C204.852 137.305 205.5 136.754 206.25 136.305C207 135.856 207.801 135.656 208.75 135.656C210.199 135.656 211.246 136.106 211.996 137.004C212.746 137.856 213.148 139.106 213.148 140.652C213.148 141.602 212.996 142.555 212.695 143.504C212.445 144.402 212.047 145.203 211.496 145.902C210.949 146.602 210.297 147.152 209.547 147.601C208.797 148 207.949 148.199 207.051 148.199C205.602 148.199 204.551 147.75 203.801 146.902C203.051 146 202.652 144.801 202.652 143.254C202.652 142.305 202.801 141.352 203.102 140.402C203.402 139.504 203.801 138.703 204.301 138.004L204.301 138.004Z"  fill-rule="evenodd" />
    <path fill="#000000" d="M188.258 132.559L177.961 132.559L174.613 151.301L178.312 151.301L179.559 144.152L186.309 144.152L186.906 140.754L180.16 140.754L181.008 135.957L187.656 135.957L188.258 132.559L188.258 132.559Z"  />
    <path fill="#98bf00" d="M127.082 44.891C128.43 33.945 125.684 24.102 118.883 15.402C112.086 6.707 103.191 1.66 92.2461 0.309C81.3008 -1.039 71.4531 1.711 62.7578 8.508C54.7109 14.754 49.8125 22.801 48.0625 32.648C47.9141 33.496 47.7617 34.297 47.6641 35.145C47.5625 35.996 47.5117 36.797 47.4648 37.594C47.1133 42.191 47.5625 46.59 48.7617 50.789C50.1133 55.688 52.4609 60.285 55.8594 64.633C59.2578 68.9805 63.1563 72.3828 67.6055 74.9297C71.3516 77.0781 75.5 78.5273 80.0508 79.3281C80.8516 79.4766 81.6484 79.5781 82.5 79.7266C82.9492 79.7773 83.3984 79.8281 83.8477 79.8789C84.9492 75.4297 86.6484 71.2812 88.9961 67.531C87.4453 67.582 85.8477 67.531 84.25 67.383C84.1484 67.332 84.0977 67.332 84.0469 67.332C82.1992 67.082 80.3984 66.734 78.75 66.184C73.6016 64.535 69.2539 61.484 65.707 56.938C62.1562 52.391 60.2578 47.441 59.9062 42.043C59.8086 40.293 59.8594 38.543 60.1094 36.695C60.1094 36.645 60.1094 36.547 60.1094 36.496C61.0586 29.047 64.5078 23 70.4531 18.352C76.4531 13.703 83.1992 11.805 90.7461 12.754C98.293 13.656 104.391 17.102 109.039 23.102C113.688 29.098 115.586 35.844 114.688 43.395C114.438 45.094 114.137 46.691 113.688 48.242C117.887 46.891 122.281 46.191 126.883 46.242C126.93 45.793 127.031 45.344 127.082 44.891L127.082 44.891Z"  />
    <path fill="#98bf00" d="M132.328 51.488C131.48 51.391 130.68 51.289 129.828 51.238C125.23 50.941 120.832 51.391 116.637 52.539C111.738 53.887 107.141 56.289 102.789 59.688C98.4414 63.035 95.043 66.934 92.5469 71.3828C90.3945 75.1289 88.9453 79.2773 88.0977 83.8281C92.4453 84.5742 96.4453 85.8242 100.141 87.6758C100.391 85.875 100.742 84.1758 101.242 82.5781C102.891 77.4297 105.941 73.082 110.488 69.5312C115.035 65.984 119.984 64.035 125.434 63.684C127.18 63.586 128.93 63.633 130.781 63.883C130.828 63.883 130.879 63.883 130.93 63.883C138.375 64.836 144.426 68.332 149.074 74.2812C153.77 80.2266 155.668 86.9766 154.719 94.5234C153.77 102.07 150.32 108.168 144.375 112.863C138.426 117.512 131.68 119.363 124.23 118.461C125.082 122.512 125.332 126.758 125.031 131.156C134.977 131.809 143.973 128.957 152.02 122.711C160.719 115.914 165.766 107.016 167.113 96.0703C168.465 85.125 165.715 75.2812 158.918 66.582C152.621 58.535 144.574 53.637 134.777 51.891C133.93 51.738 133.129 51.59 132.328 51.488L132.328 51.488Z"  />
    <path fill="#000000" d="M128.93 78.7266C125.48 78.3281 122.434 79.1797 119.684 81.3281C116.934 83.4766 115.387 86.2266 114.984 89.625C114.535 93.0742 115.387 96.1211 117.535 98.8711C119.684 101.621 122.434 103.168 125.883 103.57C129.281 104.019 132.328 103.168 135.078 101.019C137.828 98.8711 139.375 96.1211 139.824 92.6719C140.227 89.2734 139.375 86.2266 137.227 83.4766C135.078 80.7266 132.328 79.1797 128.93 78.7266L128.93 78.7266Z"  />
    <path fill="#98bf00" d="M12.8281 73.6289C13.7773 66.082 17.2266 59.938 23.2227 55.289C29.1719 50.641 35.8672 48.742 43.3164 49.691C42.4648 45.641 42.1641 41.395 42.5156 36.996C32.5703 36.344 23.5742 39.145 15.5273 45.441C6.77734 52.238 1.78125 61.137 0.433594 72.082C-0.917969 83.0273 1.78125 92.8242 8.62891 101.57C14.875 109.617 22.9219 114.516 32.7695 116.262C33.5703 116.414 34.3672 116.512 35.2188 116.664C36.0664 116.762 36.8672 116.863 37.7188 116.914C42.3164 117.215 46.7148 116.762 50.9102 115.613C55.7578 114.215 60.4062 111.816 64.7578 108.465C69.0547 105.066 72.4531 101.168 75.0039 96.7695C77.1523 93.0234 78.6016 88.875 79.4492 84.3281C75.1016 83.5781 71.1055 82.2773 67.4062 80.4766C67.1563 82.2266 66.8047 83.9258 66.3047 85.5742C64.6562 90.7227 61.6055 95.0703 57.0586 98.6211C52.5117 102.168 47.5625 104.117 42.1641 104.469C40.4141 104.566 38.6172 104.519 36.7656 104.269C36.7188 104.269 36.668 104.269 36.6172 104.219C29.1719 103.269 23.1211 99.8203 18.4727 93.8711C13.7773 87.875 11.8789 81.1289 12.8281 73.6289L12.8281 73.6289Z"  />
    <path fill="#000000" d="M32.4688 67.133C29.7188 69.2305 28.1719 72.0312 27.7227 75.4805C27.3203 78.8281 28.1719 81.8789 30.3203 84.625C32.418 87.375 35.168 88.9727 38.6172 89.4258C42.0664 89.7734 45.1133 88.9258 47.8633 86.8242C50.5625 84.6758 52.1094 81.8789 52.5625 78.5273C53.0117 75.0781 52.1602 71.9805 50.0117 69.2812C47.8633 66.535 45.1133 64.984 41.6641 64.586C38.2148 64.133 35.168 64.984 32.4688 67.133L32.4688 67.133Z"  />
    <path fill="#000000" d="M97.293 32.348C95.1445 29.598 92.3438 28.047 88.9453 27.648C85.4961 27.199 82.4492 28.047 79.75 30.199C77 32.297 75.4023 35.098 75.0039 38.543C74.5508 41.941 75.4531 44.992 77.6016 47.742C79.6992 50.441 82.4492 52.039 85.8984 52.488C89.2969 52.84 92.3438 51.988 95.0938 49.891C97.8438 47.742 99.3906 44.941 99.8438 41.594C100.242 38.145 99.3906 35.047 97.293 32.348L97.293 32.348Z"  />
    <path fill="#98bf00" d="M85.0469 88.4258C84.5977 88.375 84.1484 88.3242 83.6992 88.2734C82.5977 92.7227 80.8984 96.8711 78.5508 100.621C80.1016 100.519 81.6992 100.57 83.3477 100.769C83.3984 100.769 83.4492 100.769 83.5 100.82C85.3477 101.019 87.0977 101.371 88.7969 101.918C93.9453 103.57 98.293 106.668 101.84 111.215C105.391 115.715 107.289 120.66 107.641 126.109C107.738 127.859 107.688 129.609 107.438 131.457C107.438 131.508 107.438 131.559 107.438 131.656C106.488 139.106 103.039 145.152 97.0938 149.801C91.0938 154.449 84.3477 156.348 76.8008 155.398C69.2539 154.449 63.1563 151 58.5078 145.051C53.8086 139.055 51.9102 132.309 52.8594 124.762C53.0625 123.062 53.4102 121.461 53.9102 119.91C49.6641 121.262 45.2656 121.91 40.6641 121.91C40.6172 122.359 40.5156 122.812 40.4648 123.262C39.1172 134.207 41.8164 144.004 48.6641 152.75C55.4609 161.445 64.3555 166.492 75.3008 167.844C86.2461 169.191 96.043 166.445 104.789 159.645C112.836 153.348 117.734 145.301 119.484 135.457C119.633 134.656 119.734 133.856 119.883 133.008C119.934 132.156 120.035 131.359 120.082 130.559C120.383 125.91 119.934 121.512 118.785 117.363C117.434 112.465 115.035 107.867 111.688 103.519C108.289 99.1719 104.391 95.7227 99.9922 93.2227C96.1953 91.0742 92.0469 89.625 87.4961 88.8242C86.6992 88.6758 85.8984 88.5234 85.0469 88.4258L85.0469 88.4258Z"  />
    <path fill="#000000" d="M89.9961 120.41C87.8477 117.664 85.0977 116.113 81.6484 115.664C78.1992 115.266 75.1523 116.113 72.4531 118.262C69.7031 120.41 68.1562 123.16 67.7031 126.559C67.2539 130.008 68.1562 133.059 70.3047 135.805C72.4024 138.555 75.1523 140.106 78.6016 140.504C82.0508 140.953 85.0977 140.106 87.8477 137.953C90.5469 135.805 92.0938 133.059 92.5469 129.609C92.9453 126.211 92.0938 123.16 89.9961 120.41L89.9961 120.41Z"  />
  </g>
</svg>
