<?xml version="1.0" encoding="utf-8"?>
<!-- Generator: Adobe Illustrator 20.1.0, SVG Export Plug-In . SVG Version: 6.00 Build 0)  -->
<svg version="1.1" id="Layer_1" xmlns="http://www.w3.org/2000/svg" xmlns:xlink="http://www.w3.org/1999/xlink" x="0px" y="0px"
	 viewBox="0 0 250 250" style="enable-background:new 0 0 250 250;" xml:space="preserve">
<style type="text/css">
	.st0{fill-rule:evenodd;clip-rule:evenodd;fill:#FF671F;}
	.st1{fill-rule:evenodd;clip-rule:evenodd;fill:#DB5019;}
	.st2{fill-rule:evenodd;clip-rule:evenodd;fill:#FFFFFF;}
</style>
<path class="st0" d="M124.7,239.9c63.3,0,114.9-51.6,114.9-114.9S188,10,124.7,10C61.4,10,9.7,61.6,9.7,124.9
	S61.4,239.9,124.7,239.9z"/>
<path class="st1" d="M149.6,76.1l84.4,84.4c-5.5,16.9-14.8,32-26.8,44.5c-17.8,18.3-41.6,30.7-68.2,34l-89-89
	c-1.5-1.3-1.9-2.5-1.9-3.4v-0.1c0-0.2,0-0.4,0.1-0.6c0.6-2.7,4.5-4.6,9.4-4.6c1.4,0,2.7,0.1,4.1,0.4c6.1,1.3,38.1,9.2,38.4,9.3
	l0.6,0.2l-0.4,0.5c-2.9,3.2-3.9,6.3-2.9,8.7c1.5,3.5,6.9,5.4,15.2,5.4c7.2,0,16.1-1.4,26.6-4.2l-3.7,0.3c-7.7,0.7-14.9,1.3-20.8,1.3
	c-8.8,0-13.1-1.5-14.2-4.7c-0.7-2.3,0.3-4.2,3.2-5.8c3.1-1.8,9.7-3.4,16.1-4.9c4.4-1.1,8.5-2.1,11.4-3.1c3.9-1.4,7.8-2.8,11.9-4
	l-18.3-18.3c-14.5-14.5-29.1-21.7-29.1-36.2c0-8,6.5-14.5,14.5-14.5c7.3,0,10.9,3.6,14.5,10.9c3.6-7.3,7.3-10.9,14.5-10.9
	C143.2,71.7,146.9,73.3,149.6,76.1C149.5,76,149.5,76,149.6,76.1z"/>
<path class="st2" d="M124.7,82.6c3.6-7.3,7.3-10.9,14.5-10.9c8,0,14.5,6.5,14.5,14.5c0,14.5-14.5,21.7-29.1,36.2
	c-14.5-14.5-29.1-21.7-29.1-36.2c0-8,6.5-14.5,14.5-14.5C117.4,71.7,121,75.3,124.7,82.6z"/>
<path class="st2" d="M199.9,142c-10.3-2-20-3.4-29.8-4.3c-1.9-0.2-3.9-0.3-5.9-0.3c-12.7,0-23.1,3.7-33.2,7.2c-2.8,1-7,2-11.4,3.1
	c-6.4,1.5-13,3.1-16.1,4.9c-2.8,1.6-3.9,3.5-3.2,5.8c1.1,3.3,5.4,4.7,14.2,4.7c5.9,0,13.1-0.7,20.8-1.3c1.2-0.1,2.5-0.2,3.7-0.3
	c-10.5,2.8-19.4,4.2-26.6,4.2c-8.3,0-13.7-1.9-15.2-5.4c-1.1-2.5-0.1-5.6,2.9-8.7l0.4-0.5L100,151c-0.3-0.1-32.3-8-38.4-9.3
	c-1.4-0.3-2.7-0.4-4.1-0.4c-4.9,0-8.8,1.9-9.4,4.6c0,0.2-0.1,0.4-0.1,0.6v0.1c0,1.4,1,3.5,5.4,5.5l46.7,19.7
	c1.6,0.6,3.2,1.2,4.9,1.9c5.2,2.2,10.5,4.4,15.5,4.4c2.1,0,4.1-0.2,6.1-0.7c3.6-0.8,12.7-3.5,22.4-6.4c9.4-2.8,19.1-5.7,23-6.5
	c3.1-0.7,6.2-1,9.6-1c5.9,0,11.7,1,17.6,2.1l2,0.4v-23.7L199.9,142z"/>
</svg>
