<svg id="Calque_1" data-name="Calque 1" xmlns="http://www.w3.org/2000/svg" xmlns:xlink="http://www.w3.org/1999/xlink" viewBox="0 0 657.78 167.13"><defs><style>.cls-1{fill:url(#Sfumatura_senza_nome_277);}.cls-2{fill:#fff;}.cls-3{fill:#5590a1;}</style><linearGradient id="Sfumatura_senza_nome_277" x1="365.94" y1="183.94" x2="132.1" y2="411.34" gradientUnits="userSpaceOnUse"><stop offset="0" stop-color="#5697ff"/><stop offset="1" stop-color="#6a0041"/></linearGradient></defs><title>Logo-NGIAssure-tag</title><a xlink:href= "http://nlnet.nl/assure" xlink:title="NGI Assure"><g>
<path class="cls-1" d="M425,292.31l-15.21-15.13a12.77,12.77,0,0,1-3.78-9.07v-35.5a18.6,18.6,0,0,0-18.54-18.54H110.59a18.59,18.59,0,0,0-18.53,18.54V362.66a18.59,18.59,0,0,0,18.53,18.54H387.45A18.59,18.59,0,0,0,406,362.66V332a12.81,12.81,0,0,1,3.75-9L425,307.72A10.88,10.88,0,0,0,425,292.31Z" transform="translate(-92.06 -214.07)"/><path class="cls-2" d="M363.52,244.17h0a12.37,12.37,0,0,1,12.38,12.37v82.19a12.38,12.38,0,0,1-12.38,12.38h0a12.37,12.37,0,0,1-12.37-12.38V256.54A12.37,12.37,0,0,1,363.52,244.17Z" transform="translate(-92.06 -214.07)"/><path class="cls-2" d="M323.46,296H309.75A12.66,12.66,0,0,0,297,307.51a12.38,12.38,0,0,0,12.35,13.2h0a1.94,1.94,0,0,1,1.86,2.5,10.9,10.9,0,0,1-7.62,7.27,43.23,43.23,0,0,1-11.08,1.38,36.34,36.34,0,0,1-17.95-4.36,31.28,31.28,0,0,1-12.3-12.14,38,38,0,0,1,0-35.6,30.69,30.69,0,0,1,12.37-12.06,37.78,37.78,0,0,1,18.18-4.28,36.28,36.28,0,0,1,21,6.38,11,11,0,0,0,13-.28,10.86,10.86,0,0,0-.53-17.54,53.58,53.58,0,0,0-9.25-4.91,66.32,66.32,0,0,0-25.51-4.73,63.67,63.67,0,0,0-30.25,7.1,52.6,52.6,0,0,0-21,19.71,57.4,57.4,0,0,0,0,57,52.92,52.92,0,0,0,20.85,19.71,62.57,62.57,0,0,0,29.94,7.1,78.39,78.39,0,0,0,23.07-3.51l.23-.07A28.56,28.56,0,0,0,334.34,322V306.84A10.88,10.88,0,0,0,323.46,296Z" transform="translate(-92.06 -214.07)"/><path class="cls-2" d="M220.23,256.39v82.5A12.22,12.22,0,0,1,208,351.11h-2.32a12.22,12.22,0,0,1-9.45-4.47L155.6,297.15a5.08,5.08,0,0,0-9,3.22v38.52a12.22,12.22,0,0,1-12.22,12.22h0a12.22,12.22,0,0,1-12.22-12.22v-82.5a12.22,12.22,0,0,1,12.22-12.22h2.46a12.2,12.2,0,0,1,9.46,4.48l40.49,49.44a5.07,5.07,0,0,0,9-3.21V256.39A12.23,12.23,0,0,1,208,244.17h0A12.22,12.22,0,0,1,220.23,256.39Z" transform="translate(-92.06 -214.07)"/><path class="cls-3" d="M500.43,308H483l-3.32,8.05h-8.92l16.75-37.58h8.59l16.8,37.58h-9.12Zm-2.74-6.61-6-14.38-6,14.38Z" transform="translate(-92.06 -214.07)"/><path class="cls-3" d="M531.27,315.49a20.07,20.07,0,0,1-6.68-3.14l2.95-6.55a19.88,19.88,0,0,0,5.74,2.85,21.47,21.47,0,0,0,6.66,1.07,10.58,10.58,0,0,0,5.48-1.1,3.32,3.32,0,0,0,1.77-2.92,2.79,2.79,0,0,0-1.05-2.23,7.82,7.82,0,0,0-2.68-1.42c-1.09-.36-2.57-.75-4.43-1.18a60.44,60.44,0,0,1-7-2,11.4,11.4,0,0,1-4.7-3.28,8.82,8.82,0,0,1-2-6,10.46,10.46,0,0,1,1.77-5.93,11.87,11.87,0,0,1,5.34-4.22,22,22,0,0,1,8.73-1.55,29,29,0,0,1,7,.85,21.1,21.1,0,0,1,6,2.47l-2.68,6.61a21,21,0,0,0-10.42-3,9.72,9.72,0,0,0-5.39,1.19,3.58,3.58,0,0,0-1.75,3.11,3,3,0,0,0,2,2.87,30.79,30.79,0,0,0,6.14,1.85,61,61,0,0,1,7,2,11.72,11.72,0,0,1,4.7,3.22,8.64,8.64,0,0,1,2,6,10.25,10.25,0,0,1-1.8,5.88,12.15,12.15,0,0,1-5.39,4.22,22.16,22.16,0,0,1-8.75,1.55A30.59,30.59,0,0,1,531.27,315.49Z" transform="translate(-92.06 -214.07)"/><path class="cls-3" d="M576.26,315.49a20,20,0,0,1-6.69-3.14l3-6.55a19.88,19.88,0,0,0,5.74,2.85,21.47,21.47,0,0,0,6.66,1.07,10.57,10.57,0,0,0,5.47-1.1,3.32,3.32,0,0,0,1.77-2.92,2.81,2.81,0,0,0-1-2.23,7.87,7.87,0,0,0-2.69-1.42c-1.09-.36-2.57-.75-4.43-1.18a61.64,61.64,0,0,1-7-2,11.47,11.47,0,0,1-4.7-3.28,8.87,8.87,0,0,1-2-6,10.4,10.4,0,0,1,1.78-5.93,11.87,11.87,0,0,1,5.34-4.22,21.94,21.94,0,0,1,8.72-1.55,29,29,0,0,1,7,.85,21,21,0,0,1,6,2.47l-2.68,6.61a20.93,20.93,0,0,0-10.41-3,9.73,9.73,0,0,0-5.4,1.19,3.59,3.59,0,0,0-1.74,3.11,3,3,0,0,0,2,2.87,30.71,30.71,0,0,0,6.15,1.85,61.64,61.64,0,0,1,7,2,11.79,11.79,0,0,1,4.7,3.22,8.68,8.68,0,0,1,1.95,6,10.32,10.32,0,0,1-1.79,5.88,12.13,12.13,0,0,1-5.4,4.22,22.13,22.13,0,0,1-8.75,1.55A30.52,30.52,0,0,1,576.26,315.49Z" transform="translate(-92.06 -214.07)"/><path class="cls-3" d="M621.67,312.25q-4.49-4.46-4.48-12.73v-21h8.69V299.2q0,10.1,8.38,10.09a7.82,7.82,0,0,0,6.22-2.44c1.44-1.63,2.15-4.18,2.15-7.65V278.48h8.59v21q0,8.28-4.48,12.73t-12.53,4.45Q626.16,316.7,621.67,312.25Z" transform="translate(-92.06 -214.07)"/><path class="cls-3" d="M694.49,316.06l-7.25-10.47h-8v10.47h-8.69V278.48h16.26a21,21,0,0,1,8.67,1.66,12.42,12.42,0,0,1,7.65,12A12.22,12.22,0,0,1,695.4,304l8.43,12.08Zm-2.2-28.8a9.13,9.13,0,0,0-6-1.69h-7.09v13.09h7.09a9.07,9.07,0,0,0,6-1.71,6,6,0,0,0,2-4.84A5.93,5.93,0,0,0,692.29,287.26Z" transform="translate(-92.06 -214.07)"/><path class="cls-3" d="M749.83,309.08v7H720.74V278.48h28.4v7H729.38v8.16h17.45v6.76H729.38v8.7Z" transform="translate(-92.06 -214.07)"/></g></a></svg>
